<?xml version="1.0" encoding="UTF-8" ?>
<!DOCTYPE svg PUBLIC "-//W3C//DTD SVG 1.1//EN" "http://www.w3.org/Graphics/SVG/1.1/DTD/svg11.dtd">
<svg width="593pt" height="398pt" viewBox="0 0 593 398" version="1.1" xmlns="http://www.w3.org/2000/svg">
<path fill="#151E8A" d=" M 327.88 27.85 C 346.31 23.13 366.01 24.17 384.10 29.86 C 417.53 41.08 444.10 71.10 450.19 105.96 C 451.05 111.93 452.37 117.92 451.98 123.99 C 450.95 137.75 446.30 150.82 442.74 164.04 C 450.94 165.66 459.40 164.82 467.61 166.50 C 488.71 171.03 508.38 182.09 523.24 197.75 C 533.15 209.25 541.40 222.42 546.14 236.92 C 548.44 244.74 550.44 252.78 550.04 261.00 C 549.74 269.52 550.53 278.07 549.61 286.56 C 546.49 304.35 538.40 321.09 527.11 335.14 C 523.74 339.09 519.84 342.55 516.26 346.30 C 509.62 353.31 501.27 358.45 492.64 362.65 C 483.42 366.65 474.00 370.49 464.00 371.99 C 455.76 373.51 447.36 372.92 439.04 372.99 C 339.69 373.03 240.35 372.95 141.00 373.04 C 132.73 373.59 124.51 371.95 116.73 369.22 C 107.81 365.58 98.38 362.80 90.50 357.05 C 85.75 354.47 82.20 350.34 77.77 347.31 C 74.69 345.08 72.50 341.90 69.64 339.43 C 59.14 330.31 53.04 317.40 48.30 304.59 C 45.95 299.08 45.04 293.13 43.97 287.28 C 42.17 281.35 43.17 275.08 42.19 269.03 C 41.08 254.05 45.73 239.40 51.63 225.84 C 55.56 219.23 59.44 212.42 65.23 207.22 C 69.52 203.50 72.55 198.39 77.53 195.49 C 80.58 193.73 83.48 191.73 86.46 189.85 C 94.55 185.59 103.41 183.26 112.10 180.64 C 116.74 181.01 121.36 180.35 125.97 179.99 C 133.40 179.77 140.85 180.14 148.23 181.00 C 146.55 172.92 143.18 165.26 142.03 157.06 C 139.17 139.98 143.18 121.65 153.70 107.78 C 157.15 103.24 161.77 99.79 165.55 95.54 C 169.13 91.64 173.75 89.03 178.15 86.18 C 182.06 83.95 186.49 82.91 190.56 81.01 C 194.84 79.00 199.67 78.83 204.19 77.59 C 216.42 76.53 229.13 77.14 240.57 81.95 C 246.74 83.92 252.12 87.58 257.72 90.72 C 263.67 77.47 271.39 64.96 281.32 54.31 C 294.17 41.62 310.41 32.43 327.88 27.85 Z" />
</svg>
